<svg fill="#fff" xmlns="http://www.w3.org/2000/svg" width="425" height="425" shape-rendering="geometricPrecision" text-rendering="geometricPrecision" image-rendering="optimizeQuality" fill-rule="evenodd" clip-rule="evenodd"><defs><style>.fil0{fill:#fff}</style></defs><g id="Camada_x0020_1"><path class="fil0" d="M391 256v-90h-46c-11 0-21 4-29 12-9 9-12 20-12 32 0 13 4 24 13 33s20 13 33 13h5c3-1 6-1 8-1l5-1-1 11c0 7-2 13-7 17-5 5-12 6-19 6-6 0-11-1-17-3-5-1-9-3-14-5v17l18 6c6 1 12 2 18 2 9 0 18-2 25-6 7-3 12-8 16-15 1-4 3-7 3-11 1-5 1-11 1-16v-1zm-26-18c-2 1-4 1-6 2h-5c-8 0-13-3-18-9s-7-13-7-21c0-7 2-14 6-20 5-5 10-8 17-8 2 0 4 0 6 1 2 0 5 1 7 2h2v53h-2zM27 305h24v-51l4 1c3 0 6 0 8 1h6c13 0 24-4 33-13s13-20 13-33c0-12-4-23-12-32-8-8-18-12-30-12-15-1-30 0-46 0v139zm24-67v-53h3c2-1 5-2 7-2 2-1 4-1 6-1 7 0 12 3 16 8 5 6 7 13 7 20 0 8-2 15-7 21s-11 9-18 9h-5c-2-1-4-1-6-2h-3zM152 252V117h-25v135zM165 136c0 4 1 7 4 10 3 2 6 4 10 4 3 0 7-2 9-4 3-3 4-6 4-10s-1-7-4-10c-2-2-6-4-9-4-4 0-7 2-10 4-3 3-4 6-4 10zM191 252v-85h-24v85zM230 252v-41c0-6 2-13 6-18 3-5 9-7 15-7 4 0 8 2 11 5 3 4 4 9 4 13v48h24v-57c0-7-2-15-7-21-5-5-12-7-19-7-5 0-11 1-15 4-6 3-11 7-15 12l-6 8v-24h-22v85h24z"/></g></svg>
